<svg width="60" height="60" viewBox="0 0 60 60" fill="none" xmlns="http://www.w3.org/2000/svg">
<circle cx="30" cy="30" r="30" fill="#F2F2F2"/>
<mask id="mask0" mask-type="alpha" maskUnits="userSpaceOnUse" x="0" y="0" width="60" height="60">
<circle cx="30" cy="30" r="28.5" fill="#F2F2F2" stroke="black" stroke-width="3"/>
</mask>
<g mask="url(#mask0)">
<path fill-rule="evenodd" clip-rule="evenodd" d="M8.83268 60C8.83268 60 4.66602 60 4.66602 55.8333C4.66602 51.6667 8.83268 39.1667 29.666 39.1667C50.4993 39.1667 54.666 51.6667 54.666 55.8333C54.666 60 50.4993 60 50.4993 60H8.83268ZM29.666 35C32.9812 35 36.1606 33.683 38.5049 31.3388C40.8491 28.9946 42.166 25.8152 42.166 22.5C42.166 19.1848 40.8491 16.0054 38.5049 13.6612C36.1606 11.317 32.9812 10 29.666 10C26.3508 10 23.1714 11.317 20.8272 13.6612C18.483 16.0054 17.166 19.1848 17.166 22.5C17.166 25.8152 18.483 28.9946 20.8272 31.3388C23.1714 33.683 26.3508 35 29.666 35V35Z" fill="#0B9ED9"/>
</g>
</svg>
