<svg xmlns="http://www.w3.org/2000/svg" viewBox="0 0 595.2 753.79"><defs><style>.cls-1{fill:#0b9ed9;}</style></defs><title>Escudo</title><g id="Capa_2" data-name="Capa 2"><g id="Capa_3" data-name="Capa 3"><circle class="cls-1" cx="289.21" cy="236.02" r="17.34"/><path class="cls-1" d="M595.19,62.89c.19-17.33-6.15-25.33-23.86-31-11.8-3.79-30.56-7.86-52.87-11.93a1232.59,1232.59,0,0,0-441.72,0C54.43,24,35.67,28.09,23.87,31.88,6.16,37.56-.18,45.57,0,62.89c.94,88.23-.49,176.49,1,264.7A369.12,369.12,0,0,0,12.6,412.88C43.18,531.64,113.28,628,217.37,703.75c25.23,18.35,53.41,33.33,80.23,49.86,2,1.35,12.54-5.49,26.37-15.76,18.41-10.84,36.8-21.7,53.85-34.1C481.91,628,552,531.64,582.59,412.88a369.07,369.07,0,0,0,11.62-85.28C595.69,239.38,594.25,151.12,595.19,62.89ZM232.12,325.34c-69.52-38.89-80.73-84.92-80.73-84.92s55.27,4.1,46.43-27.22c0,0,53.63.4,81.65-26.82h59.91s-1.88,33.1,16.94,32.82c24.46-.36,25.63-58.1,26.42-78,91.65,88.45,89.65,247.35,89.65,247.35-8.81-11.21-21.15-20.82-32.42-29.22,0,0,23.21,77.65.8,111.67-6-12-16.81-20.36-16.81-20.36-15.61,90.8-137.26,120.29-140.08,121.62,0,0-5.2-14-7.6-43.23,0,0-24.81,51.23,3.2,134.88,0,0-7.43,8.34-9.21,18.41,0,0,29.06-18.65,44-13.24,14.39,5.23,23.94,19.25,32.1,34.63l-1.92,1.88c-32.64,0-63.23-.41-93.7-.05-7.71-7.57-15.43-15.1-22.32-21.81-20-46.58-42.57-123.12-45-129.88-3,7.9-2.27,20.08-2.27,20.08-23.85,2.08-37.74-5.47-37.74-5.47,1.5-5.7.51-20.09.51-20.09a195,195,0,0,1-17.78,24.17C99,532.83,79.78,489.76,70.34,442.89c133.69,12.68,185-66.78,185-66.78s14.26,9,18.51,55.53C273.86,431.64,297.5,361.91,232.12,325.34ZM531,393.87c-4.77,91.07-44.85,168.85-108.43,235.73-5.16-11.34-12.44-37-18.66-94.91a79.62,79.62,0,0,0,27.35-37.19h0c6.92.54,8.44,8.19,8.44,8.19h0c40.25-28,36.58-80.23,36.58-80.24s7.67,2.67,20.93,18.18c11.47-176.2-41.58-278.81-117.58-344.12-3.72-3.2-10-4-12.83,0-10.05,14.11-16.93,33.93-16.93,33.94h0c-2.33-2.86-26.75-34.72-36.76-33.94-16.3,1.27-11.52,62-11.52,62H278.45a35,35,0,0,0-20.84,6.74c-11.61,8.61-28.45,16.88-39.52,17.52-30.27,1.75-41.63-2.71-57.51-6.46-28.79-6.8-44.46,11.21-33,46.07h0c-6.17,42.69,3.17,78.71,109.56,134.08h0s-49.64,69.94-171.24,55.52q-1.19-10.42-1.76-21.07-1.22-23.32-1.92-46.66c12,5.72,21.73,14.56,24.77,17.49a.76.76,0,0,0,1.28-.46c5.4-39.82-5.55-72.83-27.5-93.06-.54-61,.07-122.06-.59-183.07-.13-12,4.31-19.95,18-22.93L81,64.57a1024.55,1024.55,0,0,1,433.12,0l2.87.62c13.65,3,18.09,11,18,22.93C533.88,190.05,536.36,292.13,531,393.87Z"/></g></g></svg>