<svg width="94" height="96" viewBox="0 0 94 96" fill="none" xmlns="http://www.w3.org/2000/svg">
<path d="M94.0002 94.3045C93.6605 90.9388 91.9339 83.3088 83.4013 82.109C83.4013 82.109 81.2228 81.9066 79.5523 66.3619C81.4599 64.9335 82.9018 62.9741 83.6965 60.73C84.747 60.8123 84.9795 61.9709 84.9795 61.9726C91.0928 57.7247 90.5371 49.8133 90.5371 49.8133C90.5371 49.8133 91.703 50.2182 93.715 52.5684C95.4564 25.8619 87.4038 10.309 75.8599 0.409445C75.2943 -0.0760682 74.3444 -0.196212 73.9123 0.409445C72.3852 2.549 71.3413 5.5526 71.3413 5.55424C70.9867 5.11975 67.2779 0.287656 65.759 0.409445C63.2853 0.602005 64.0093 9.80043 64.0093 9.80043H60.4851C59.3472 9.79385 58.2373 10.1521 57.3188 10.8225C55.5542 12.1276 52.9981 13.3817 51.316 13.4788C46.7199 13.7438 44.9933 13.069 42.5757 12.4996C38.2038 11.4693 35.8225 14.1997 37.5706 19.4811C36.6339 25.9524 38.0521 31.4115 54.2102 39.8035C54.2102 39.8035 46.4593 50.7152 27.3922 48.1165C25.6116 47.8856 23.9108 47.2382 22.4283 46.2271C21.7175 45.7334 21.0661 45.1606 20.7462 44.5599C20.3312 43.8058 20.1049 42.9629 20.0866 42.1027C20.0668 40.7005 20.4164 39.3822 21.4454 38.4293C25.1955 34.9615 30.4529 39.685 31.4045 40.6017C31.42 40.6166 31.4393 40.6268 31.4602 40.6313C31.4812 40.6358 31.503 40.6344 31.5232 40.6272C31.5434 40.62 31.5612 40.6074 31.5746 40.5907C31.588 40.574 31.5965 40.5539 31.5991 40.5326C33.1476 29.2127 25.9475 21.5169 15.3684 23.4425C3.81467 25.5475 -1.74123 36.8658 0.48179 47.18C3.80312 62.5914 19.3642 62.8959 19.3642 62.8959L17.9757 68.3007C17.9757 68.3007 15.2497 71.8046 11.1615 73.9573C10.8719 74.1058 10.6287 74.3307 10.4583 74.6075C10.2879 74.8844 10.1969 75.2025 10.1951 75.5274C10.1951 78.5508 10.2067 88.0224 10.1951 93.74C10.1941 94.3291 10.424 94.8953 10.8357 95.3176C11.2473 95.7398 11.8082 95.9846 12.3984 95.9996H92.4698C92.6857 96.0007 92.8994 95.9562 93.0968 95.8691C93.2942 95.782 93.471 95.6542 93.6155 95.4941C93.76 95.3341 93.869 95.1454 93.9353 94.9403C94.0016 94.7353 94.0237 94.5186 94.0002 94.3045ZM70.9455 92.267C65.5776 92.267 60.5824 92.1962 55.5905 92.267C54.0915 92.2883 53.9579 91.5214 53.6281 90.603C50.4271 83.8848 46.4478 70.3761 46.0421 69.2651C45.5902 70.4633 45.6974 72.3082 45.6974 72.3082C42.0694 72.6242 39.9667 71.4853 39.9667 71.4853C40.1943 70.6213 40.0442 68.4406 40.0442 68.4406C37.4931 72.4152 33.5418 77.6226 23.8664 78.6841V83.2924C23.8664 83.2924 20.2185 83.3681 18.2445 88.5244C18.2445 88.5244 22.6641 85.794 25.3885 87.4283C27.2718 88.4158 28.3569 90.5257 29.4701 92.5978H15.6752C14.5208 92.6076 13.9485 92.3032 13.9683 91.003V77.2012C13.9683 77.2012 20.9276 73.8323 21.9979 67.9617C22.1628 67.0861 21.6153 63.1345 21.922 60.6576C22.0772 59.31 22.4446 57.9953 23.0105 56.7619C23.0105 56.7619 21.0315 58.2069 20.6802 59.015C20.6802 59.015 12.0949 59.2076 6.55716 51.6714C3.48319 47.4878 3.02803 39.2983 5.13397 35.8503C5.13397 35.8503 12.6012 22.2378 24.1253 28.9132C26.9502 30.5491 27.6544 33.9774 27.6544 33.9774C23.0105 33.082 20.423 34.267 18.7491 35.9737C17.3267 37.4231 16.4265 39.3026 16.1895 41.3175C15.9525 43.3325 16.3923 45.3689 17.4397 47.1076C18.2074 48.336 19.2237 49.3908 20.4235 50.2045C21.6233 51.0182 22.9802 51.5728 24.4073 51.8327C48.0491 56.1316 56.9774 42.3315 56.9774 42.3315C56.9774 42.3315 59.1427 43.6959 59.7809 50.7481C59.7809 50.7481 63.3711 40.1804 53.4417 34.6373C42.8873 28.7437 41.1805 21.7671 41.1805 21.7671C41.1805 21.7671 49.5745 22.3892 48.2321 17.6427C48.2321 17.6427 56.3772 17.7036 60.6319 13.5776H69.7301C69.7301 13.5776 69.4448 18.594 72.3027 18.5512C76.0182 18.4969 76.1947 9.74447 76.3151 6.72112C90.2353 20.1279 89.9302 44.211 89.9302 44.211C88.5928 42.5125 86.7177 41.0543 85.0059 39.7821C85.0059 39.7821 88.5318 51.5513 85.128 56.7076C84.216 54.8874 82.5751 53.6217 82.5751 53.6217C80.2037 67.384 61.7286 71.854 61.3014 72.0548C61.3014 72.0548 60.5115 69.9317 60.1471 65.5028C60.1471 65.5028 56.3788 73.2677 60.6335 85.947C60.6335 85.947 59.5055 87.211 59.2351 88.7449C59.2351 88.7449 63.6481 85.9174 65.914 86.7387C68.1799 87.5599 69.6724 89.8246 70.9455 92.267Z" fill="#0B9ED9"/>
<path d="M62.118 23.7284C63.5725 23.7284 64.7517 22.5516 64.7517 21.1C64.7517 19.6484 63.5725 18.4717 62.118 18.4717C60.6635 18.4717 59.4844 19.6484 59.4844 21.1C59.4844 22.5516 60.6635 23.7284 62.118 23.7284Z" fill="#0B9ED9"/>
</svg>
